<svg xmlns="http://www.w3.org/2000/svg" width="700" height="500" viewBox="0 0 700 500">
  <defs>
    <radialGradient id="fondo" cx="50%" cy="55%" r="65%">
      <stop offset="0%" stop-color="#3a3350"/>
      <stop offset="55%" stop-color="#211d33"/>
      <stop offset="100%" stop-color="#14111f"/>
    </radialGradient>
    <radialGradient id="halo" cx="50%" cy="48%" r="52%">
      <stop offset="0%" stop-color="#ffdca8" stop-opacity="0.34"/>
      <stop offset="45%" stop-color="#e8b878" stop-opacity="0.11"/>
      <stop offset="100%" stop-color="#e8b878" stop-opacity="0"/>
    </radialGradient>

    <linearGradient id="acero" x1="0" y1="0" x2="1" y2="0">
      <stop offset="0%"  stop-color="#7f889b"/>
      <stop offset="28%" stop-color="#d4dae4"/>
      <stop offset="50%" stop-color="#ffffff"/>
      <stop offset="60%" stop-color="#c3cbd8"/>
      <stop offset="100%" stop-color="#646c7d"/>
    </linearGradient>
    <linearGradient id="acero-h" x1="0" y1="0" x2="0" y2="1">
      <stop offset="0%"  stop-color="#7f889b"/>
      <stop offset="28%" stop-color="#d4dae4"/>
      <stop offset="50%" stop-color="#ffffff"/>
      <stop offset="60%" stop-color="#c3cbd8"/>
      <stop offset="100%" stop-color="#646c7d"/>
    </linearGradient>
    <linearGradient id="acero-lustre" x1="0" y1="0" x2="0" y2="1">
      <stop offset="0%" stop-color="#ffffff" stop-opacity="0.95"/>
      <stop offset="35%" stop-color="#ffffff" stop-opacity="0.22"/>
      <stop offset="100%" stop-color="#ffffff" stop-opacity="0"/>
    </linearGradient>

    <linearGradient id="oro" x1="0" y1="0" x2="1" y2="1">
      <stop offset="0%"  stop-color="#f6d98a"/>
      <stop offset="45%" stop-color="#c99a3f"/>
      <stop offset="100%" stop-color="#7d5a1e"/>
    </linearGradient>
    <radialGradient id="oro-pomo" cx="38%" cy="32%" r="72%">
      <stop offset="0%"  stop-color="#ffe9ad"/>
      <stop offset="55%" stop-color="#c99a3f"/>
      <stop offset="100%" stop-color="#6f4e18"/>
    </radialGradient>

    <linearGradient id="cuero" x1="0" y1="0" x2="1" y2="0">
      <stop offset="0%"  stop-color="#5c3a1e"/>
      <stop offset="50%" stop-color="#8a5a2f"/>
      <stop offset="100%" stop-color="#42280f"/>
    </linearGradient>

    <linearGradient id="madera" x1="0" y1="0" x2="1" y2="0">
      <stop offset="0%"  stop-color="#5a3a1c"/>
      <stop offset="45%" stop-color="#9a6b3a"/>
      <stop offset="55%" stop-color="#84592e"/>
      <stop offset="100%" stop-color="#3f2711"/>
    </linearGradient>

    <radialGradient id="gema-azul" cx="38%" cy="30%" r="75%">
      <stop offset="0%" stop-color="#cfe4ff"/>
      <stop offset="40%" stop-color="#5b8be0"/>
      <stop offset="100%" stop-color="#1f3f8a"/>
    </radialGradient>
    <radialGradient id="gema-roja" cx="38%" cy="30%" r="75%">
      <stop offset="0%" stop-color="#ffd0cf"/>
      <stop offset="40%" stop-color="#e0555b"/>
      <stop offset="100%" stop-color="#8a1f2a"/>
    </radialGradient>
    <radialGradient id="gema-verde" cx="38%" cy="30%" r="75%">
      <stop offset="0%" stop-color="#d4ffdf"/>
      <stop offset="40%" stop-color="#4fbf7a"/>
      <stop offset="100%" stop-color="#1a6b3a"/>
    </radialGradient>
    <radialGradient id="pocion-roja" cx="42%" cy="30%" r="80%">
      <stop offset="0%" stop-color="#ff9a8f"/>
      <stop offset="45%" stop-color="#e23b46"/>
      <stop offset="100%" stop-color="#8f1420"/>
    </radialGradient>
    <linearGradient id="vidrio" x1="0" y1="0" x2="1" y2="0">
      <stop offset="0%" stop-color="#ffffff" stop-opacity="0.55"/>
      <stop offset="30%" stop-color="#cfe0e6" stop-opacity="0.18"/>
      <stop offset="100%" stop-color="#7d9aa6" stop-opacity="0.30"/>
    </linearGradient>

    <!-- Hechizos -->
    <radialGradient id="fuego" cx="50%" cy="58%" r="60%">
      <stop offset="0%" stop-color="#fff3c0"/>
      <stop offset="35%" stop-color="#ffd23a"/>
      <stop offset="70%" stop-color="#f06a1e"/>
      <stop offset="100%" stop-color="#a01f10"/>
    </radialGradient>
    <radialGradient id="curacion" cx="50%" cy="45%" r="60%">
      <stop offset="0%" stop-color="#eafff0"/>
      <stop offset="45%" stop-color="#7fe6a2"/>
      <stop offset="100%" stop-color="#2a9a5a"/>
    </radialGradient>
    <radialGradient id="caos" cx="45%" cy="35%" r="70%">
      <stop offset="0%" stop-color="#e0b0ff"/>
      <stop offset="45%" stop-color="#8a3fd0"/>
      <stop offset="100%" stop-color="#3a1060"/>
    </radialGradient>

    <filter id="sombra" x="-60%" y="-60%" width="220%" height="220%">
      <feDropShadow dx="0" dy="6" stdDeviation="7" flood-color="#000000" flood-opacity="0.45"/>
    </filter>
  </defs>
<rect width="700" height="500" fill="url(#fondo)"/><ellipse cx="350" cy="250" rx="230" ry="205" fill="url(#halo)"/><g filter="url(#sombra)"><g transform="translate(350 0)"><path d="M 0 90 L 128 118 L 118 250 C 110 330 60 388 0 418 C -60 388 -110 330 -118 250 L -128 118 Z" fill="url(#oro)" stroke="#5c4413" stroke-width="3" stroke-linejoin="round"/><path d="M 0 108 L 110 132 L 101 246 C 94 318 52 368 0 396 C -52 368 -94 318 -101 246 L -110 132 Z" fill="url(#acero-h)" stroke="#454b5b" stroke-width="2"/><path d="M 0 112 L 0 392" stroke="#3a4150" stroke-width="2" opacity="0.4"/><path d="M -96 140 L -8 122 L -8 388 C -52 362 -88 316 -96 250 Z" fill="#ffffff" opacity="0.16"/><circle cx="0" cy="250" r="40" fill="none" stroke="url(#oro)" stroke-width="5"/><ellipse cx="0" cy="250" rx="30" ry="30" fill="url(#gema-roja)" stroke="#3a2a10" stroke-width="2"/><ellipse cx="-9.0" cy="239.5" rx="9.6" ry="8.4" fill="#ffffff" opacity="0.6"/><circle cx="-90" cy="140" r="6" fill="url(#oro-pomo)" stroke="#5c4413" stroke-width="1.5"/><circle cx="90" cy="140" r="6" fill="url(#oro-pomo)" stroke="#5c4413" stroke-width="1.5"/><circle cx="-70" cy="300" r="6" fill="url(#oro-pomo)" stroke="#5c4413" stroke-width="1.5"/><circle cx="70" cy="300" r="6" fill="url(#oro-pomo)" stroke="#5c4413" stroke-width="1.5"/><circle cx="0" cy="380" r="6" fill="url(#oro-pomo)" stroke="#5c4413" stroke-width="1.5"/></g></g></svg>
