<svg xmlns="http://www.w3.org/2000/svg" width="700" height="500" viewBox="0 0 700 500">
  <defs>
    <radialGradient id="fondo" cx="50%" cy="52%" r="65%">
      <stop offset="0%" stop-color="#3a3350"/>
      <stop offset="55%" stop-color="#211d33"/>
      <stop offset="100%" stop-color="#14111f"/>
    </radialGradient>
    <radialGradient id="halo" cx="50%" cy="45%" r="52%">
      <stop offset="0%" stop-color="#ffdca8" stop-opacity="0.30"/>
      <stop offset="55%" stop-color="#e8b878" stop-opacity="0.10"/>
      <stop offset="100%" stop-color="#e8b878" stop-opacity="0"/>
    </radialGradient>
    <linearGradient id="piel" x1="0" y1="0" x2="1" y2="1">
      <stop offset="0%" stop-color="#e8b083"/>
      <stop offset="55%" stop-color="#c88a5c"/>
      <stop offset="100%" stop-color="#8f5c38"/>
    </linearGradient>
    <linearGradient id="piel-palida" x1="0" y1="0" x2="1" y2="1">
      <stop offset="0%" stop-color="#f2ddc4"/>
      <stop offset="55%" stop-color="#dcc0a2"/>
      <stop offset="100%" stop-color="#b0906e"/>
    </linearGradient>
    <linearGradient id="piel-verde" x1="0" y1="0" x2="1" y2="1">
      <stop offset="0%" stop-color="#9cc16a"/>
      <stop offset="55%" stop-color="#6f9a41"/>
      <stop offset="100%" stop-color="#3f6122"/>
    </linearGradient>
    <linearGradient id="piel-verde-osc" x1="0" y1="0" x2="1" y2="1">
      <stop offset="0%" stop-color="#6f8f4a"/>
      <stop offset="55%" stop-color="#4a6b2c"/>
      <stop offset="100%" stop-color="#293f18"/>
    </linearGradient>
    <linearGradient id="piedra" x1="0" y1="0" x2="1" y2="1">
      <stop offset="0%" stop-color="#9aa2ac"/>
      <stop offset="55%" stop-color="#6d757f"/>
      <stop offset="100%" stop-color="#42484f"/>
    </linearGradient>
    <linearGradient id="pelo" x1="0" y1="0" x2="0" y2="1">
      <stop offset="0%" stop-color="#7a4a1e"/>
      <stop offset="100%" stop-color="#3f2610"/>
    </linearGradient>
    <linearGradient id="pelo-blanco" x1="0" y1="0" x2="0" y2="1">
      <stop offset="0%" stop-color="#ffffff"/>
      <stop offset="100%" stop-color="#c3c8d0"/>
    </linearGradient>
    <linearGradient id="pelo-rojo" x1="0" y1="0" x2="0" y2="1">
      <stop offset="0%" stop-color="#c9642a"/>
      <stop offset="100%" stop-color="#7a3312"/>
    </linearGradient>
    <linearGradient id="cuero" x1="0" y1="0" x2="0" y2="1">
      <stop offset="0%" stop-color="#7a4f28"/>
      <stop offset="100%" stop-color="#3a2410"/>
    </linearGradient>
    <linearGradient id="acero" x1="0" y1="0" x2="1" y2="0">
      <stop offset="0%" stop-color="#7f889b"/>
      <stop offset="50%" stop-color="#eef2f7"/>
      <stop offset="100%" stop-color="#646c7d"/>
    </linearGradient>
    <linearGradient id="acero-osc" x1="0" y1="0" x2="1" y2="0">
      <stop offset="0%" stop-color="#2a2e36"/>
      <stop offset="50%" stop-color="#565d68"/>
      <stop offset="100%" stop-color="#1c2026"/>
    </linearGradient>
    <linearGradient id="tela-azul" x1="0" y1="0" x2="0" y2="1">
      <stop offset="0%" stop-color="#3a5bbf"/>
      <stop offset="100%" stop-color="#1f2f6a"/>
    </linearGradient>
    <linearGradient id="tela-verde" x1="0" y1="0" x2="0" y2="1">
      <stop offset="0%" stop-color="#3f7a4a"/>
      <stop offset="100%" stop-color="#204028"/>
    </linearGradient>
    <linearGradient id="tela-roja" x1="0" y1="0" x2="0" y2="1">
      <stop offset="0%" stop-color="#a5342f"/>
      <stop offset="100%" stop-color="#5c1613"/>
    </linearGradient>
    <radialGradient id="oro" cx="40%" cy="32%" r="72%">
      <stop offset="0%" stop-color="#ffe9ad"/>
      <stop offset="55%" stop-color="#c99a3f"/>
      <stop offset="100%" stop-color="#6f4e18"/>
    </radialGradient>
    <radialGradient id="gema-azul" cx="40%" cy="30%" r="75%">
      <stop offset="0%" stop-color="#d8ecff"/>
      <stop offset="45%" stop-color="#5b8be0"/>
      <stop offset="100%" stop-color="#1f3f8a"/>
    </radialGradient>
    <filter id="sombra" x="-60%" y="-60%" width="220%" height="220%">
      <feDropShadow dx="0" dy="6" stdDeviation="7" flood-color="#000000" flood-opacity="0.45"/>
    </filter>
  </defs>
<rect width="700" height="500" fill="url(#fondo)"/><ellipse cx="350" cy="230" rx="240" ry="210" fill="url(#halo)"/><g filter="url(#sombra)" transform="translate(350 0)"><path d="M -150 500 C -150 384 -96 338 -30 330 L 30 330 C 96 338 150 384 150 500 Z" fill="url(#cuero)" stroke="#2e1a09" stroke-width="3"/><rect x="-30" y="292" width="60" height="60" rx="14" fill="url(#piel-verde)" stroke="#3f6122" stroke-width="2"/><path d="M -64 190 C -64 150 64 150 64 190 C 64 250 38 294 0 300 C -38 294 -64 250 -64 190 Z" fill="url(#piel-verde)" stroke="#3f6122" stroke-width="3"/><path d="M 64 190 C 64 250 38 294 0 300 C 26 284 37 250 38 196 Z" fill="#000000" opacity="0.14"/><path d="M -60 176 C -128 150 -150 100 -150 78 C -120 110 -90 140 -56 156 Z" fill="url(#piel-verde)" stroke="#3f6122" stroke-width="2.5"/><path d="M 60 176 C 128 150 150 100 150 78 C 120 110 90 140 56 156 Z" fill="url(#piel-verde)" stroke="#3f6122" stroke-width="2.5"/><path d="M -120 96 C -100 120 -80 138 -60 150" fill="none" stroke="#2f4a1a" stroke-width="3" opacity="0.5"/><path d="M 120 96 C 100 120 80 138 60 150" fill="none" stroke="#2f4a1a" stroke-width="3" opacity="0.5"/><path d="M -64 168 C -50 150 50 150 64 168 C 40 154 -40 154 -64 168 Z" fill="url(#cuero)" stroke="#2e1a09" stroke-width="2"/><path d="M -52 188 L -16 196" stroke="#2f4a1a" stroke-width="8" stroke-linecap="round"/><path d="M 16 196 L 52 188" stroke="#2f4a1a" stroke-width="8" stroke-linecap="round"/><ellipse cx="-28" cy="206" rx="10" ry="7.8" fill="#e8c020"/><ellipse cx="28" cy="206" rx="10" ry="7.8" fill="#e8c020"/><circle cx="-25" cy="203" r="2.4" fill="#ffffff" opacity="0.85"/><circle cx="31" cy="203" r="2.4" fill="#ffffff" opacity="0.85"/><ellipse cx="-28" cy="206" rx="4" ry="7" fill="#1a1a00"/><ellipse cx="28" cy="206" rx="4" ry="7" fill="#1a1a00"/><path d="M 0 210 C 8 226 10 240 0 248 C -6 242 -6 232 -4 224 Z" fill="#4a6b2c" stroke="#2f4a1a" stroke-width="1.5"/><path d="M -22 264 C -8 274 8 274 22 264 L 16 272 L 8 266 L 0 274 L -8 266 L -16 272 Z" fill="#20140a" stroke="#2f4a1a" stroke-width="1.5"/><polygon points="-16,264 -12,274 -8,264" fill="#e8e2d0"/><polygon points="8,264 12,274 16,264" fill="#e8e2d0"/></g></svg>
