<svg xmlns="http://www.w3.org/2000/svg" width="1000" height="1400" viewBox="0 0 1000 1400">
  <defs>
    <linearGradient id="piedra" x1="0" y1="0" x2="0" y2="1">
      <stop offset="0%" stop-color="#241d10"/>
      <stop offset="50%" stop-color="#382a12"/>
      <stop offset="100%" stop-color="#1e160a"/>
    </linearGradient>
    <radialGradient id="luz" cx="50%" cy="52%" r="55%">
      <stop offset="0%" stop-color="#ffd76a" stop-opacity="0.45"/>
      <stop offset="45%" stop-color="#ffd76a" stop-opacity="0.16"/>
      <stop offset="100%" stop-color="#ffd76a" stop-opacity="0"/>
    </radialGradient>
    <radialGradient id="vineta" cx="50%" cy="50%" r="72%">
      <stop offset="55%" stop-color="#000000" stop-opacity="0"/>
      <stop offset="100%" stop-color="#000000" stop-opacity="0.72"/>
    </radialGradient>
    <linearGradient id="madera" x1="0" y1="0" x2="1" y2="0">
      <stop offset="0%" stop-color="#4a2f16"/>
      <stop offset="50%" stop-color="#7a4f28"/>
      <stop offset="100%" stop-color="#3a2410"/>
    </linearGradient>
    <linearGradient id="acero" x1="0" y1="0" x2="1" y2="0">
      <stop offset="0%" stop-color="#5a626f"/>
      <stop offset="45%" stop-color="#aab2c0"/>
      <stop offset="55%" stop-color="#c8cfdb"/>
      <stop offset="100%" stop-color="#454b57"/>
    </linearGradient>
    <radialGradient id="llama" cx="50%" cy="35%" r="65%">
      <stop offset="0%" stop-color="#fff3c0"/>
      <stop offset="40%" stop-color="#ffb03a"/>
      <stop offset="100%" stop-color="#e0521a" stop-opacity="0"/>
    </radialGradient>
    <radialGradient id="oro" cx="40%" cy="32%" r="72%">
      <stop offset="0%" stop-color="#ffe9ad"/>
      <stop offset="55%" stop-color="#c99a3f"/>
      <stop offset="100%" stop-color="#6f4e18"/>
    </radialGradient>
    <radialGradient id="gema" cx="40%" cy="32%" r="75%">
      <stop offset="0%" stop-color="#d8ecff"/>
      <stop offset="45%" stop-color="#5b8be0"/>
      <stop offset="100%" stop-color="#1f3f8a"/>
    </radialGradient>
    <linearGradient id="banda" x1="0" y1="0" x2="0" y2="1">
      <stop offset="0%" stop-color="#000000" stop-opacity="0.7"/>
      <stop offset="100%" stop-color="#000000" stop-opacity="0"/>
    </linearGradient>
  </defs>
<rect width="1000" height="1400" fill="url(#piedra)"/><g stroke="#160f0a" stroke-width="4" opacity="0.55"><line x1="0" y1="300" x2="1000" y2="300"/><line x1="0" y1="560" x2="1000" y2="560"/><line x1="0" y1="820" x2="1000" y2="820"/><line x1="0" y1="1080" x2="1000" y2="1080"/><line x1="250" y1="300" x2="250" y2="560"/><line x1="620" y1="300" x2="620" y2="560"/><line x1="130" y1="560" x2="130" y2="820"/><line x1="500" y1="560" x2="500" y2="820"/><line x1="820" y1="560" x2="820" y2="820"/><line x1="360" y1="820" x2="360" y2="1080"/><line x1="700" y1="820" x2="700" y2="1080"/></g><g stroke="#5a4128" stroke-width="2" opacity="0.22"><line x1="60" y1="380" x2="200" y2="378"/><line x1="700" y1="420" x2="880" y2="424"/><line x1="120" y1="640" x2="300" y2="642"/><line x1="560" y1="700" x2="760" y2="698"/><line x1="300" y1="940" x2="520" y2="944"/><line x1="640" y1="1000" x2="860" y2="998"/></g><ellipse cx="500" cy="720" rx="520" ry="560" fill="url(#luz)"/><ellipse cx="500" cy="1030" rx="360" ry="90" fill="#7a5410" opacity="0.6"/><ellipse cx="360" cy="1000" rx="22" ry="11.0" fill="url(#oro)" stroke="#5c4413" stroke-width="1.5"/><ellipse cx="440" cy="1030" rx="26" ry="13.0" fill="url(#oro)" stroke="#5c4413" stroke-width="1.5"/><ellipse cx="540" cy="1020" rx="24" ry="12.0" fill="url(#oro)" stroke="#5c4413" stroke-width="1.5"/><ellipse cx="620" cy="1000" rx="20" ry="10.0" fill="url(#oro)" stroke="#5c4413" stroke-width="1.5"/><ellipse cx="400" cy="1060" rx="20" ry="10.0" fill="url(#oro)" stroke="#5c4413" stroke-width="1.5"/><ellipse cx="500" cy="1058" rx="24" ry="12.0" fill="url(#oro)" stroke="#5c4413" stroke-width="1.5"/><ellipse cx="600" cy="1055" rx="22" ry="11.0" fill="url(#oro)" stroke="#5c4413" stroke-width="1.5"/><ellipse cx="300" cy="1035" rx="18" ry="9.0" fill="url(#oro)" stroke="#5c4413" stroke-width="1.5"/><ellipse cx="700" cy="1030" rx="18" ry="9.0" fill="url(#oro)" stroke="#5c4413" stroke-width="1.5"/><ellipse cx="470" cy="990" rx="16" ry="8.0" fill="url(#oro)" stroke="#5c4413" stroke-width="1.5"/><ellipse cx="560" cy="985" rx="16" ry="8.0" fill="url(#oro)" stroke="#5c4413" stroke-width="1.5"/><g transform="translate(500 780)"><path d="M -180 -30 L 180 -30 L 150 -150 L -150 -150 Z" fill="#5a3a1c" stroke="#211307" stroke-width="4"/><path d="M -150 -150 L 150 -150 L 130 -120 L -130 -120 Z" fill="#7a4f28" opacity="0.6"/><rect x="-180" y="-30" width="360" height="180" rx="12" fill="url(#madera)" stroke="#211307" stroke-width="5"/><rect x="-180" y="10" width="360" height="20" fill="url(#oro)" opacity="0.8"/><rect x="-30" y="-30" width="60" height="180" fill="url(#oro)" opacity="0.7"/><circle cx="0" cy="60" r="20" fill="url(#oro)" stroke="#5c4413" stroke-width="2"/><ellipse cx="0" cy="-30" rx="150" ry="30" fill="#ffdf8a" opacity="0.5"/></g><circle cx="410" cy="1000" r="16" fill="url(#gema)" stroke="#1f2f5a" stroke-width="2"/><ellipse cx="600" cy="1010" rx="15" ry="15" fill="#e0555b" stroke="#8a1f2a" stroke-width="2"/><ellipse cx="520" cy="1035" rx="14" ry="14" fill="#4fbf7a" stroke="#1a6b3a" stroke-width="2"/><g transform="translate(70 560)"><rect x="-10" y="0" width="20" height="180" rx="6" fill="url(#madera)" stroke="#211307" stroke-width="2"/><ellipse cx="0" cy="-30" rx="46" ry="70" fill="url(#llama)"/><path d="M 0 -78 C -14 -46 -20 -20 0 -6 C 20 -20 14 -46 0 -78 Z" fill="#ffd86a"/></g><g transform="translate(930 560)"><rect x="-10" y="0" width="20" height="180" rx="6" fill="url(#madera)" stroke="#211307" stroke-width="2"/><ellipse cx="0" cy="-30" rx="46" ry="70" fill="url(#llama)"/><path d="M 0 -78 C -14 -46 -20 -20 0 -6 C 20 -20 14 -46 0 -78 Z" fill="#ffd86a"/></g><rect x="0" y="0" width="1000" height="330" fill="url(#banda)"/><rect x="0" y="0" width="1000" height="330" fill="url(#banda)" transform="translate(0 1400) scale(1 -1)"/><rect width="1000" height="1400" fill="url(#vineta)"/></svg>
