<svg xmlns="http://www.w3.org/2000/svg" width="220" height="220" viewBox="0 0 220 220">
  <defs>
    <linearGradient id="madera" x1="0" y1="0" x2="1" y2="0">
      <stop offset="0%"  stop-color="#5a3a1c"/>
      <stop offset="45%" stop-color="#a06a35"/>
      <stop offset="60%" stop-color="#8a5828"/>
      <stop offset="100%" stop-color="#3f2711"/>
    </linearGradient>
    <linearGradient id="madera-verde" x1="0" y1="0" x2="1" y2="1">
      <stop offset="0%"  stop-color="#2e5d34"/>
      <stop offset="50%" stop-color="#4d8a4a"/>
      <stop offset="100%" stop-color="#2a4f2c"/>
    </linearGradient>
    <linearGradient id="madera-roja" x1="0" y1="0" x2="1" y2="1">
      <stop offset="0%"  stop-color="#7c2621"/>
      <stop offset="45%" stop-color="#a0402f"/>
      <stop offset="100%" stop-color="#5e1f1a"/>
    </linearGradient>
    <linearGradient id="piedra" x1="0" y1="0" x2="1" y2="1">
      <stop offset="0%"  stop-color="#9aa0a8"/>
      <stop offset="50%" stop-color="#747c88"/>
      <stop offset="100%" stop-color="#4d545e"/>
    </linearGradient>
    <linearGradient id="piedra-clara" x1="0" y1="0" x2="1" y2="1">
      <stop offset="0%"  stop-color="#d9d4c8"/>
      <stop offset="100%" stop-color="#9a9180"/>
    </linearGradient>
    <linearGradient id="oro" x1="0" y1="0" x2="1" y2="1">
      <stop offset="0%"  stop-color="#f6d98a"/>
      <stop offset="50%" stop-color="#c99a3f"/>
      <stop offset="100%" stop-color="#8a641f"/>
    </linearGradient>
    <linearGradient id="fuego" x1="0" y1="0" x2="0" y2="1">
      <stop offset="0%"  stop-color="#ffd54f"/>
      <stop offset="50%" stop-color="#ff8f00"/>
      <stop offset="100%" stop-color="#d84315"/>
    </linearGradient>
  </defs>
<ellipse cx="110" cy="200" rx="80" ry="12" fill="#000" opacity="0.18"/><rect x="30" y="18" width="160" height="180" rx="6" fill="url(#piedra)" stroke="#1a1a1a" stroke-width="3"/><rect x="12" y="30" width="18" height="156" rx="4" fill="url(#piedra)" stroke="#1a1a1a" stroke-width="2.5"/><rect x="190" y="30" width="18" height="156" rx="4" fill="url(#piedra)" stroke="#1a1a1a" stroke-width="2.5"/><path d="M 30 18 Q 110 -12 190 18 Z" fill="url(#piedra)" stroke="#1a1a1a" stroke-width="3"/><rect x="46" y="36" width="128" height="146" rx="5" fill="url(#madera-roja)" stroke="#1a1a1a" stroke-width="3"/><rect x="56" y="52" width="108" height="42" rx="3" fill="none" stroke="#3d1410" stroke-width="3"/><rect x="56" y="106" width="108" height="42" rx="3" fill="none" stroke="#3d1410" stroke-width="3"/><rect x="96" y="46" width="4" height="126" fill="#3d1410"/><rect x="86" y="78" width="48" height="16" rx="3" fill="url(#madera)" stroke="#1a1a1a" stroke-width="2"/><circle cx="130" cy="86" r="5" fill="url(#oro)" stroke="#1a1a1a" stroke-width="2"/><rect x="82" y="128" width="56" height="18" rx="4" fill="url(#madera)" stroke="#1a1a1a" stroke-width="2"/><rect x="96" y="118" width="28" height="22" rx="3" fill="#5e1f1a" stroke="#1a1a1a" stroke-width="2"/></svg>
